ply
format ascii 1.0
comment PCL generated
element vertex 54
property float x
property float y
property float z
property uchar red
property uchar green
property uchar blue
element camera 1
property float view_px
property float view_py
property float view_pz
property float x_axisx
property float x_axisy
property float x_axisz
property float y_axisx
property float y_axisy
property float y_axisz
property float z_axisx
property float z_axisy
property float z_axisz
property float focal
property float scalex
property float scaley
property float centerx
property float centery
property int viewportx
property int viewporty
property float k1
property float k2
end_header
355.33401 406.53415 -1337.7465 0 0 255
10.727618 118.6873 -1337.749 0 0 255
355.96194 407.42163 -1328.7413 0 0 255
-142.85506 652.77502 -2287.7649 0 0 255
43.079636 244.73335 -1304.5798 0 0 255
-79.486031 381.63364 -1304.5912 0 0 255
-98.442039 286.84653 -1293.9038 0 0 255
-124.30016 292.36954 -1287.5743 0 0 255
-79.486038 378.6684 -1304.5913 0 0 255
-25.544321 248.54759 -1326.5132 0 0 255
70.939568 203.61963 -1326.5032 0 0 255
166.59686 -44.746185 -1360.8015 0 0 255
252.19839 24.916327 -1342.2906 0 0 255
236.39069 372.44928 -1315.4458 0 0 255
-3.9240139 369.84009 -1289.6613 0 0 255
-78.565338 378.24066 -1302.4377 0 0 255
-176.23346 197.84422 -1315.4922 0 0 255
355.9617 407.62253 -1328.74 0 0 255
209.84149 30.765491 -1344.5753 0 0 255
235.2262 369.61133 -1305.0024 0 0 255
102.85986 377.56985 -1323.9211 0 0 255
447.54105 84.386276 -1318.0887 0 0 255
85.728767 252.15001 -1305.0056 0 0 255
88.52021 -17.794439 -1370.2554 0 0 255
-124.9336 286.47702 -1289.6803 0 0 255
88.079781 -23.358627 -1363.4401 0 0 255
209.89967 24.472429 -1343.379 0 0 255
499.78946 49.251095 -1323.927 0 0 255
444.80942 83.572762 -1305.0111 0 0 255
236.34906 373.25348 -1312.5029 0 0 255
430.99988 352.73959 -1290.2676 0 0 255
100.25479 375.31738 -1312.5094 0 0 255
-33.113243 368.25858 -1286.6392 0 0 255
452.4162 87.101196 -1335.5355 0 0 255
496.48044 94.445328 -1335.5411 0 0 255
452.41757 94.445328 -1335.5413 0 0 255
428.97278 356.79388 -1290.2678 0 0 255
78.550972 291.29224 -1294.6515 0 0 255
86.982849 -16.939081 -1349.7411 0 0 255
86.982849 -22.028387 -1349.7412 0 0 255
448.95087 93.046219 -1321.6294 0 0 255
227.43794 369.3945 -1294.6407 0 0 255
430.02536 357.19403 -1294.6571 0 0 255
88.376877 -18.03368 -1355.5068 0 0 255
81.148804 292.05258 -1289.3857 0 0 255
444.96112 43.711235 -1321.6168 0 0 255
497.86636 44.394707 -1327.1526 0 0 255
492.80344 93.046089 -1321.6281 0 0 255
436.23563 266.51358 -1295.6993 0 0 255
41.170891 -17.692642 -1376.6898 0 0 255
453.08313 91.569901 -1334.9794 0 0 255
86.020454 -17.692545 -1376.6824 0 0 255
496.57303 44.455067 -1334.9773 0 0 255
-98.440804 292.90372 -1295.729 0 0 255
0 0 0 1 0 0 0 1 0 0 0 1 0 0 0 0 0 54 1 0 0
