ply
format ascii 1.0
comment PCL generated
element vertex 59
property float x
property float y
property float z
property uchar red
property uchar green
property uchar blue
element camera 1
property float view_px
property float view_py
property float view_pz
property float x_axisx
property float x_axisy
property float x_axisz
property float y_axisx
property float y_axisy
property float y_axisz
property float z_axisx
property float z_axisy
property float z_axisz
property float focal
property float scalex
property float scaley
property float centerx
property float centery
property int viewportx
property int viewporty
property float k1
property float k2
end_header
161.63591 333.81494 -1273.0131 0 0 255
161.63593 326.09894 -1273.0132 0 0 255
246.94981 -23.919661 -1349.177 0 0 255
228.98611 292.23148 -1293.8792 0 0 255
192.71469 289.29089 -1293.8807 0 0 255
386.81824 366.2471 -1293.8887 0 0 255
140.75815 374.57895 -1293.8832 0 0 255
198.59654 243.21603 -1293.8802 0 0 255
132.91565 242.2363 -1293.8834 0 0 255
153.22661 364.72702 -1283.3633 0 0 255
205.17986 200.7473 -1304.5731 0 0 255
303.17172 -42.830605 -1349.1803 0 0 255
292.72766 368.07837 -1289.6564 0 0 255
389.17398 368.76306 -1302.4285 0 0 255
193.06212 287.75943 -1289.6538 0 0 255
140.75809 375.06836 -1293.879 0 0 255
197.95441 240.94717 -1283.3629 0 0 255
246.097 -23.289179 -1342.2964 0 0 255
226.9453 200.61343 -1302.4213 0 0 255
199.71019 251.53175 -1302.4224 0 0 255
300.41879 -44.489822 -1356.1329 0 0 255
362.58646 30.150089 -1322.0602 0 0 255
246.89189 -23.480854 -1353.3423 0 0 255
361.98264 23.915775 -1320.735 0 0 255
-15.735922 110.99033 -1336.8462 0 0 255
239.49458 249.18329 -1289.6559 0 0 255
206.75058 207.29971 -1305.0033 0 0 255
-13.937511 297.00284 -1305.017 0 0 255
134.13759 245.74275 -1305.0073 0 0 255
242.82722 246.58742 -1307.6 0 0 255
156.91814 245.74239 -1305.0055 0 0 255
366.39706 30.041512 -1336.8416 0 0 255
236.4054 288.74472 -1286.6252 0 0 255
161.69542 331.24554 -1268.7583 0 0 255
369.04773 350.41559 -1234.4718 0 0 255
205.6118 207.44244 -1305.0068 0 0 255
153.86591 366.23181 -1286.6283 0 0 255
147.12785 373.81119 -1286.6229 0 0 255
239.77432 243.26361 -1286.6251 0 0 255
156.064 251.86505 -1305.0085 0 0 255
236.4054 293.79816 -1286.6252 0 0 255
154.71883 360.81271 -1268.7563 0 0 255
246.92645 -22.399244 -1359.386 0 0 255
160.69875 326.92636 -1268.756 0 0 255
167.54787 119.27239 -1339.4407 0 0 255
312.70697 403.09409 -1403.4764 0 0 255
244.75102 -18.211384 -1349.7433 0 0 255
234.76015 291.28961 -1294.6399 0 0 255
249.80754 367.61639 -1284.1694 0 0 255
247.84122 -19.566963 -1355.5094 0 0 255
221.16641 200.16541 -1289.3884 0 0 255
244.50264 296.42758 -1289.3879 0 0 255
158.94896 329.23639 -1258.6901 0 0 255
242.87868 -17.156477 -1334.9786 0 0 255
239.25198 248.9269 -1295.7056 0 0 255
125.07761 87.703796 -1001.2185 0 0 255
207.59375 203.19829 -1295.7067 0 0 255
405.9682 29.958261 -1334.9785 0 0 255
358.84918 27.31809 -1295.7006 0 0 255
0 0 0 1 0 0 0 1 0 0 0 1 0 0 0 0 0 59 1 0 0
