ply
format ascii 1.0
comment PCL generated
element vertex 51
property float x
property float y
property float z
element camera 1
property float view_px
property float view_py
property float view_pz
property float x_axisx
property float x_axisy
property float x_axisz
property float y_axisx
property float y_axisy
property float y_axisz
property float z_axisx
property float z_axisy
property float z_axisz
property float focal
property float scalex
property float scaley
property float centerx
property float centery
property int viewportx
property int viewporty
property float k1
property float k2
end_header
175.17899 382.06934 -1422.108
97.401573 395.87207 -1435.0363
140.70009 345.97403 -1422.1057
184.2933 342.3512 -1409.4103
2.8353844 214.07166 -1448.2067
145.95993 128.09364 -1475.2715
220.26178 259.4202 -1435.0347
544.4917 423.7829 -1489.1794
2.8353999 219.55846 -1448.2065
34.030914 456.41574 -1422.1119
138.54521 350.82309 -1422.1089
189.56873 127.46127 -1461.6123
220.54726 265.08878 -1429.8373
168.5479 392.48764 -1429.8384
251.61195 300.8186 -1414.4629
249.03986 303.39047 -1414.4622
536.04926 424.181 -1475.26
214.67387 303.03064 -1423.6462
156.12549 260.59439 -1442.3745
402.61545 382.2464 -1423.6519
185.16254 346.52121 -1423.6471
6.8061981 128.64554 -1481.3672
171.18356 385.35211 -1423.6476
124.5867 382.24594 -1423.6487
3.4797261 213.38589 -1442.384
261.27051 257.98676 -1423.645
226.94043 223.61353 -1442.3782
156.31891 262.76456 -1450.0095
215.54414 303.50781 -1427.3506
182.78886 347.59909 -1405.3982
185.64476 348.35773 -1427.3527
621.70178 379.38098 -1468.5902
136.79158 385.9017 -1436.3287
145.8179 388.15814 -1436.3284
260.90237 266.30182 -1436.3219
179.65665 337.07614 -1384.0969
404.46234 377.64767 -1409.7316
285.72592 389.28711 -1436.3333
574.61719 451.0145 -1585.9432
181.21211 347.74872 -1409.7339
231.36098 227.63605 -1475.3022
6.0702667 134.46097 -1475.3058
258.00568 309.07928 -1428.7804
228.9142 218.57242 -1428.7811
144.87219 386.65771 -1428.7843
9.111351 307.46555 -1428.7866
319.42084 386.65628 -1428.7792
142.8073 384.90009 -1421.1006
321.60416 391.20792 -1444.3903
227.68326 219.00439 -1421.0961
177.52931 381.04147 -1421.0986
0 0 0 1 0 0 0 1 0 0 0 1 0 0 0 0 0 51 1 0 0
