ply
format ascii 1.0
comment PCL generated
element vertex 51
property float x
property float y
property float z
property uchar red
property uchar green
property uchar blue
element camera 1
property float view_px
property float view_py
property float view_pz
property float x_axisx
property float x_axisy
property float x_axisz
property float y_axisx
property float y_axisy
property float y_axisz
property float z_axisx
property float z_axisy
property float z_axisz
property float focal
property float scalex
property float scaley
property float centerx
property float centery
property int viewportx
property int viewporty
property float k1
property float k2
end_header
175.17899 382.06934 -1422.108 0 0 255
97.401573 395.87207 -1435.0363 0 0 255
140.70009 345.97403 -1422.1057 0 0 255
184.2933 342.3512 -1409.4103 0 0 255
2.8353844 214.07166 -1448.2067 0 0 255
145.95993 128.09364 -1475.2715 0 0 255
220.26178 259.4202 -1435.0347 0 0 255
544.4917 423.7829 -1489.1794 0 0 255
2.8353999 219.55846 -1448.2065 0 0 255
34.030914 456.41574 -1422.1119 0 0 255
138.54521 350.82309 -1422.1089 0 0 255
189.56873 127.46127 -1461.6123 0 0 255
220.54726 265.08878 -1429.8373 0 0 255
168.5479 392.48764 -1429.8384 0 0 255
251.61195 300.8186 -1414.4629 0 0 255
249.03986 303.39047 -1414.4622 0 0 255
536.04926 424.181 -1475.26 0 0 255
214.67387 303.03064 -1423.6462 0 0 255
156.12549 260.59439 -1442.3745 0 0 255
402.61545 382.2464 -1423.6519 0 0 255
185.16254 346.52121 -1423.6471 0 0 255
6.8061981 128.64554 -1481.3672 0 0 255
171.18356 385.35211 -1423.6476 0 0 255
124.5867 382.24594 -1423.6487 0 0 255
3.4797261 213.38589 -1442.384 0 0 255
261.27051 257.98676 -1423.645 0 0 255
226.94043 223.61353 -1442.3782 0 0 255
156.31891 262.76456 -1450.0095 0 0 255
215.54414 303.50781 -1427.3506 0 0 255
182.78886 347.59909 -1405.3982 0 0 255
185.64476 348.35773 -1427.3527 0 0 255
621.70178 379.38098 -1468.5902 0 0 255
136.79158 385.9017 -1436.3287 0 0 255
145.8179 388.15814 -1436.3284 0 0 255
260.90237 266.30182 -1436.3219 0 0 255
179.65665 337.07614 -1384.0969 0 0 255
404.46234 377.64767 -1409.7316 0 0 255
285.72592 389.28711 -1436.3333 0 0 255
574.61719 451.0145 -1585.9432 0 0 255
181.21211 347.74872 -1409.7339 0 0 255
231.36098 227.63605 -1475.3022 0 0 255
6.0702667 134.46097 -1475.3058 0 0 255
258.00568 309.07928 -1428.7804 0 0 255
228.9142 218.57242 -1428.7811 0 0 255
144.87219 386.65771 -1428.7843 0 0 255
9.111351 307.46555 -1428.7866 0 0 255
319.42084 386.65628 -1428.7792 0 0 255
142.8073 384.90009 -1421.1006 0 0 255
321.60416 391.20792 -1444.3903 0 0 255
227.68326 219.00439 -1421.0961 0 0 255
177.52931 381.04147 -1421.0986 0 0 255
0 0 0 1 0 0 0 1 0 0 0 1 0 0 0 0 0 51 1 0 0
