ply
format ascii 1.0
comment PCL generated
element vertex 53
property float x
property float y
property float z
property uchar red
property uchar green
property uchar blue
element camera 1
property float view_px
property float view_py
property float view_pz
property float x_axisx
property float x_axisy
property float x_axisz
property float y_axisx
property float y_axisy
property float y_axisz
property float z_axisx
property float z_axisy
property float z_axisz
property float focal
property float scalex
property float scaley
property float centerx
property float centery
property int viewportx
property int viewporty
property float k1
property float k2
end_header
-59.721607 383.92239 -1223.6793 0 0 255
-166.03682 343.82761 -1169.2997 0 0 255
-681.34491 528.47272 -1734.6743 0 0 255
-248.81464 339.09033 -1111.6569 0 0 255
-353.71786 317.20834 -1018.4193 0 0 255
33.62785 82.746971 -1283.3698 0 0 255
84.880089 128.51987 -1293.8885 0 0 255
3.5135701 -21.959145 -1293.8896 0 0 255
87.880676 257.32758 -1252.8129 0 0 255
-11.511089 278.23004 -1223.6787 0 0 255
-263.30273 344.88818 -1119.5413 0 0 255
-309.46878 174.01495 -1111.6884 0 0 255
205.03902 347.31927 -1273.0205 0 0 255
221.85721 1.6698155 -1377.4388 0 0 255
-12.924164 103.55762 -1252.814 0 0 255
221.32462 1.1420101 -1370.2649 0 0 255
30.948811 127.63037 -1277.1399 0 0 255
280.69186 93.603645 -1356.1384 0 0 255
-57.500046 382.89261 -1231.6996 0 0 255
25.559732 256.02838 -1240.9943 0 0 255
84.360168 39.7005 -1313.2649 0 0 255
-309.62222 -44.267868 -1185.1367 0 0 255
-61.531559 383.11685 -1231.7001 0 0 255
29.498146 126.68765 -1274.6642 0 0 255
-676.08911 533.70673 -1712.8359 0 0 255
-332.76379 254.56183 -1074.7424 0 0 255
143.53429 260.88861 -1274.6639 0 0 255
218.26627 307.50928 -1297.2922 0 0 255
-162.29257 342.99588 -1162.2313 0 0 255
94.193184 39.717846 -1323.9268 0 0 255
-171.20766 347.16769 -1171.1716 0 0 255
27.922421 37.44191 -1305.0139 0 0 255
143.75909 262.63641 -1286.6328 0 0 255
-245.99298 336.06741 -1114.0433 0 0 255
287.66809 4.4423652 -1405.4 0 0 255
276.16647 90.878288 -1335.5405 0 0 255
-252.18318 341.23364 -1119.5077 0 0 255
-167.40607 342.51251 -1153.4288 0 0 255
-307.46893 -38.000412 -1174.8264 0 0 255
150.59912 41.588028 -1349.748 0 0 255
80.991608 38.670158 -1294.6549 0 0 255
-156.98477 329.09372 -1112.9528 0 0 255
-172.35263 348.48749 -1174.7919 0 0 255
27.309547 252.04633 -1229.4215 0 0 255
28.641722 33.894333 -1289.3933 0 0 255
-308.80515 -38.222664 -1174.8464 0 0 255
264.92249 347.47687 -1289.3936 0 0 255
-313.50833 -37.930149 -1190.6992 0 0 255
26.629393 250.04877 -1223.7307 0 0 255
145.02499 37.206707 -1334.9786 0 0 255
263.8761 349.18024 -1295.7144 0 0 255
28.1959 34.353607 -1295.7134 0 0 255
280.36707 -0.87399495 -1376.6853 0 0 255
0 0 0 1 0 0 0 1 0 0 0 1 0 0 0 0 0 53 1 0 0
