ply
format ascii 1.0
comment PCL generated
element vertex 44
property float x
property float y
property float z
property uchar red
property uchar green
property uchar blue
element camera 1
property float view_px
property float view_py
property float view_pz
property float x_axisx
property float x_axisy
property float x_axisz
property float y_axisx
property float y_axisy
property float y_axisz
property float z_axisx
property float z_axisy
property float z_axisz
property float focal
property float scalex
property float scaley
property float centerx
property float centery
property int viewportx
property int viewporty
property float k1
property float k2
end_header
484.31653 40.555771 -1186.8763 0 0 255
-191.55551 184.29395 -1152.2551 0 0 255
-173.90564 632.65588 -2023.7953 0 0 255
125.75089 -55.034035 -1233.2328 0 0 255
118.36291 363.24838 -1152.2181 0 0 255
19.572786 277.418 -1143.8726 0 0 255
427.52979 74.062737 -1169.2919 0 0 255
-141.70605 633.42456 -2023.7987 0 0 255
176.43765 278.28311 -1143.8663 0 0 255
71.376961 -27.047714 -1214.2605 0 0 255
176.43765 285.21637 -1143.8663 0 0 255
419.11002 261.271 -1160.6952 0 0 255
484.27237 129.50607 -1178.019 0 0 255
428.90488 84.271027 -1174.5133 0 0 255
-72.753586 277.40619 -1153.9143 0 0 255
125.91801 -51.509312 -1229.3881 0 0 255
58.919243 277.59094 -1143.8699 0 0 255
-191.31186 185.08864 -1153.943 0 0 255
106.53143 369.82144 -1164.1156 0 0 255
420.87549 261.336 -1164.1187 0 0 255
419.29248 354.43484 -1174.5066 0 0 255
67.678825 232.32805 -1144.2659 0 0 255
126.60179 -55.637218 -1231.6924 0 0 255
215.54367 357.65942 -1153.9032 0 0 255
121.12379 359.54791 -1153.902 0 0 255
-7.5254617 101.52608 -1191.5358 0 0 255
235.5321 14.584751 -1204.6229 0 0 255
71.248642 -34.043301 -1204.6215 0 0 255
423.36893 38.705349 -1178.7222 0 0 255
121.63168 360.93762 -1156.3385 0 0 255
70.711418 -33.624256 -1218.0074 0 0 255
22.87175 -27.245749 -1218.0112 0 0 255
421.21503 38.411766 -1174.7805 0 0 255
427.85947 82.707657 -1174.7805 0 0 255
61.283699 281.26028 -1153.4172 0 0 255
425.64328 128.11044 -1174.775 0 0 255
430.07458 77.392212 -1174.7815 0 0 255
61.928429 281.10782 -1149.2363 0 0 255
21.746964 -27.481726 -1229.4192 0 0 255
424.75897 263.435 -1174.781 0 0 255
-189.19325 102.64561 -1174.8226 0 0 255
-18.671373 239.50989 -1149.2444 0 0 255
379.57507 110.61339 -1174.7721 0 0 255
426.72784 36.416775 -1190.6569 0 0 255
0 0 0 1 0 0 0 1 0 0 0 1 0 0 0 0 0 44 1 0 0
